<mxfile host="app.diagrams.net" modified="2023-08-08T06:37:36.853Z" agent="Mozilla/5.0 (Windows NT 10.0; WOW64) AppleWebKit/537.36 (KHTML, like Gecko) Chrome/102.0.0.0 Safari/537.36" version="21.6.6" etag="U8Q4bVgRDnKI0jgrVWhp" type="github">
  <diagram name="Trang-1" id="RHU2SB0blxk7oOo-IkSQ">
    <mxGraphModel>
      <root>
        <mxCell id="0" />
        <mxCell id="1" parent="0" />
      </root>
    </mxGraphModel>
  </diagram>
</mxfile>
